<svg xmlns="http://www.w3.org/2000/svg" version="1.1" xmlns:xlink="http://www.w3.org/1999/xlink" width="95.08" height="109.16"><svg id="SvgjsSvg1126" data-name="Слой 1" xmlns="http://www.w3.org/2000/svg" viewBox="0 0 95.08 109.16">
  <defs>
    <style>
      .cls-1 {
        stroke: #1d1d1b;
        stroke-linecap: round;
        stroke-linejoin: round;
        stroke-width: 2px;
      }

      .cls-1, .cls-2 {
        fill: #1d1d1b;
      }
    </style>
  </defs>
  <path class="cls-2" d="m83.81,31.16c-7.55-.77-10.84-7.35-14.71-12.19-3.87-4.84-18-5.62-30-12C27.1.58,18.78,0,18.78,0l5.61,10.06,1.35,3.49-4.06-1.16-5.06,1.49,6.8,8.96s-4.84-1.55-15.48,8.9l10.82-.79s-3.33,2.04-7.13,5.53c-3.8,3.48-8.05,8.42-9.89,14.23h8.13S1.16,63.1.78,67.55c-.39,4.45-.78,6-.78,6l7.36-2.13s.19,4.64-2.42,20.52c-2.62,15.87-4.94,17.22-4.94,17.22h52.07s0-9.99-13.87-24.25c-.61-.63-6.36-10.07-5.88-20.26.47-9.84,8.13-19.88,10.12-18.36,4.07,3.09-4.5-7-2.18-9.9,0,0,3.48,8.71,17.03,10.06h13.74s5.04,3.68,10.65,3.87c5.61.2,11.61-.38,11.61-.38l1.16-7.36s-3.09-10.64-10.64-11.42Zm-25.16-.97c-1.55-.77-3.49-5.22-3.49-5.22,0,0,3.87-1.16,6.58,0,2.71,1.16,4.65,5.22,4.65,5.22,0,0-6.19.78-7.74,0Z"></path>
  <path class="cls-1" d="m59.48,73.28h-3.24c-2.98,0-5.35-2.71-5.39-6.06-.03-3.07-.1-6.06-.1-6.06,0,0,2.18,0,5.44,0,.03,0,.06,0,.09,0h3.19"></path>
  <polygon class="cls-1" points="75.25 100.02 83.86 100.02 83.86 105.12 60.96 105.12 60.96 100.02 69.57 100.02 69.57 86.08 75.25 86.08 75.25 100.02"></polygon>
  <path class="cls-1" d="m85.35,57v14.54c0,8.03-5.79,14.54-12.94,14.54s-12.94-6.51-12.94-14.54v-14.54c0-1.34.97-2.42,2.16-2.42h21.56c1.19,0,2.16,1.08,2.16,2.42Z"></path>
  <path class="cls-1" d="m85.36,61.17h3.19s.06,0,.09,0c3.27,0,5.44,0,5.44,0,0,0-.06,2.99-.1,6.06-.04,3.35-2.41,6.06-5.39,6.06h-3.24"></path>
</svg><style>@media (prefers-color-scheme: light), html { :root { filter: none; } }
@media (prefers-color-scheme: dark) { :root { filter: invert(100%); } }
</style></svg>